# xmcd
#
# Track frame offsets:
#	150
#	19164
#	38166
#	62169
#	82907
#	106456
#	125031
#	138625
#	168263
#	193047
#
# Disc length: 2795 seconds
#
# Revision: 1
# Processed by: cddbd v1.4PL0 Copyright (c) Steve Scherf et al.
# Submitted via: audiograbber 1.81.02
#
DISCID=880ae90a
DTITLE=John Earl Walker Band - Live at Chicago Blues NYC
DYEAR=2002
DGENRE=Blues
TTITLE0=Even Up The Score
TTITLE1=Last Time Out
TTITLE2=Hurricane
TTITLE3=Stop Breaking Down
TTITLE4=Sky Is Crying
TTITLE5=Baby, Baby, Baby
TTITLE6=Killing Floor
TTITLE7=Strange Things
TTITLE8=Shake Your Hips
TTITLE9=Mean Old World
EXTD=
EXTT0=
EXTT1=
EXTT2=
EXTT3=
EXTT4=
EXTT5=
EXTT6=
EXTT7=
EXTT8=
EXTT9=
PLAYORDER=
